<svg xmlns="http://www.w3.org/2000/svg" xmlns:xlink="http://www.w3.org/1999/xlink" width="180" zoomAndPan="magnify" viewBox="0 0 135 74.999997" height="100" preserveAspectRatio="xMidYMid meet" version="1.0"><defs><clipPath id="edd730ec59"><path d="M 10.382812 9.277344 L 124.769531 9.277344 L 124.769531 65.527344 L 10.382812 65.527344 Z M 10.382812 9.277344 " clip-rule="nonzero"/></clipPath></defs><rect x="-13.5" width="162" fill="#ffffff" y="-7.5" height="89.999996" fill-opacity="1"/><rect x="-13.5" width="162" fill="#ffffff" y="-7.5" height="89.999996" fill-opacity="1"/><rect x="-13.5" width="162" fill="#ffcd39" y="-7.5" height="89.999996" fill-opacity="1"/><g clip-path="url(#edd730ec59)"><path fill="#141515" d="M 40.640625 24.847656 L 40.53125 39.8125 C 36.011719 40.542969 31.652344 41.253906 27.832031 41.890625 L 26.585938 29.886719 C 30.402344 28.492188 35.34375 26.726562 40.640625 24.847656 Z M 55.628906 19.542969 L 55.503906 37.472656 C 51.140625 38.136719 46.511719 38.867188 41.980469 39.582031 L 40.6875 24.832031 C 45.59375 23.097656 50.78125 21.265625 55.628906 19.542969 Z M 30.0625 48.046875 L 59.132812 45.007812 C 59.132812 45.007812 59.039062 46.945312 56.484375 47.566406 C 53.914062 48.1875 29.953125 48.636719 29.953125 48.636719 Z M 32.195312 51.894531 L 57.234375 49.769531 C 57.234375 49.769531 56.71875 51.613281 54.523438 52.15625 C 52.308594 52.699219 32.101562 52.484375 32.101562 52.484375 Z M 17.894531 46.296875 C 17.894531 46.296875 69.277344 38.652344 70.898438 38.992188 C 72.5 39.363281 72.65625 41.378906 72.65625 41.378906 L 18.003906 46.714844 Z M 91.664062 48.945312 C 91.664062 48.945312 96.246094 49.472656 98.269531 50.25 C 99.21875 50.605469 99.765625 51.320312 100.09375 51.972656 C 98.769531 51.707031 94.4375 50.824219 94.5625 51.164062 C 94.6875 51.535156 97.945312 53.042969 99.484375 53.429688 C 97.414062 53.472656 92.894531 53.550781 92.304688 53.210938 C 91.523438 52.761719 91.664062 48.945312 91.664062 48.945312 Z M 90.152344 63.261719 C 89.46875 62.65625 88.890625 61.835938 88.425781 60.824219 C 83.1875 60.765625 78.484375 60.640625 75.507812 60.5625 C 75.023438 61.617188 74.433594 62.5 73.746094 63.167969 C 79.511719 63.183594 85.027344 63.214844 90.152344 63.261719 Z M 48.585938 63.230469 C 52.933594 63.199219 57.527344 63.167969 62.28125 63.167969 C 61.703125 62.640625 61.160156 61.972656 60.707031 61.183594 L 60.691406 61.152344 L 49.972656 61.230469 C 49.597656 62.066406 49.132812 62.765625 48.585938 63.230469 Z M 30.183594 63.445312 C 33.660156 63.382812 37.507812 63.335938 41.652344 63.292969 C 41.09375 62.824219 40.59375 62.144531 40.21875 61.304688 L 31.914062 61.367188 C 31.449219 62.285156 30.855469 63.011719 30.183594 63.445312 Z M 72.53125 57.769531 C 73.109375 57.769531 73.933594 57.785156 74.929688 57.800781 L 76.367188 57.800781 L 76.367188 57.832031 C 85.789062 58.082031 106.417969 58.746094 114.269531 57.367188 C 115.53125 57.152344 116.5 56.683594 116.980469 56.128906 C 117.230469 55.800781 117.246094 54.484375 117.121094 52.808594 C 115.5625 52.996094 114.128906 53.121094 114.128906 53.121094 C 115.410156 52.578125 116.609375 51.957031 116.6875 51.738281 C 116.746094 51.550781 115.5625 51.707031 114.238281 51.941406 C 114.675781 50.09375 116.375 49.472656 118.027344 48.914062 C 118.632812 52.578125 119.289062 57.382812 118.632812 58.191406 C 118.214844 58.714844 116.875 59.570312 114.878906 59.894531 C 111.949219 60.375 107.617188 60.640625 102.835938 60.765625 C 102.335938 61.847656 101.683594 62.75 100.933594 63.382812 C 115.347656 63.601562 124.773438 63.957031 124.773438 64.347656 C 124.773438 64.996094 99.066406 65.539062 67.578125 65.539062 C 36.074219 65.539062 10.382812 64.996094 10.382812 64.347656 C 10.382812 64.066406 15.339844 63.804688 23.566406 63.585938 C 22.769531 63.167969 22.070312 62.359375 21.554688 61.304688 L 20.136719 61.246094 L 15.460938 59.972656 L 15.308594 59.199219 L 19.730469 59.136719 L 19.730469 55.957031 C 19.730469 55.863281 19.730469 55.800781 19.730469 55.722656 C 19.730469 51.941406 21.382812 48.855469 24.71875 48.867188 C 28.066406 48.867188 29.703125 51.941406 29.703125 55.722656 C 29.703125 55.800781 29.703125 55.894531 29.703125 55.972656 L 29.703125 59.011719 L 49.394531 58.761719 L 58.683594 58.65625 L 58.683594 56.671875 L 31.027344 56.652344 L 31.027344 55.644531 C 39.175781 55.289062 49.753906 54.839844 58.683594 54.515625 L 58.683594 54.21875 C 58.683594 41.457031 71.128906 41.628906 71.128906 54.484375 C 71.128906 55.644531 71.003906 56.761719 70.769531 57.800781 L 72.53125 57.800781 Z M 69.574219 57.554688 C 68.792969 59.863281 67.4375 61.382812 65.894531 61.382812 C 64.261719 61.382812 62.828125 59.632812 62.09375 57.042969 C 63.058594 58.714844 64.445312 59.769531 65.988281 59.769531 C 67.375 59.769531 68.621094 58.933594 69.574219 57.554688 Z M 65.925781 49.164062 C 67.34375 49.164062 68.480469 50.839844 68.527344 52.917969 C 68.03125 51.800781 67.046875 51.039062 65.925781 51.039062 C 64.804688 51.039062 63.824219 51.800781 63.324219 52.917969 C 63.371094 50.839844 64.507812 49.164062 65.925781 49.164062 Z M 65.769531 56.328125 C 66.332031 56.328125 66.769531 55.492188 66.769531 54.46875 C 66.769531 53.445312 66.332031 52.605469 65.769531 52.605469 C 65.226562 52.605469 64.773438 53.445312 64.773438 54.46875 C 64.773438 55.492188 65.226562 56.328125 65.769531 56.328125 Z M 24.8125 52.855469 C 25.777344 52.855469 26.570312 54.050781 26.601562 55.570312 C 26.261719 54.746094 25.574219 54.1875 24.8125 54.1875 C 24.03125 54.1875 23.363281 54.746094 23.019531 55.570312 C 23.050781 54.050781 23.828125 52.855469 24.8125 52.855469 Z M 24.53125 49.769531 C 26.429688 49.769531 28.003906 52.171875 28.285156 55.320312 C 27.628906 53.054688 26.199219 51.507812 24.53125 51.507812 C 22.847656 51.507812 21.382812 53.121094 20.746094 55.414062 C 20.992188 52.234375 22.582031 49.769531 24.53125 49.769531 Z M 24.703125 58.035156 C 25.089844 58.035156 25.386719 57.429688 25.386719 56.683594 C 25.386719 55.941406 25.089844 55.335938 24.703125 55.335938 C 24.328125 55.335938 24.015625 55.941406 24.015625 56.683594 C 24.015625 57.429688 24.328125 58.035156 24.703125 58.035156 Z M 27.304688 58.933594 C 26.773438 60.609375 25.855469 61.710938 24.796875 61.710938 C 23.65625 61.710938 22.675781 60.4375 22.164062 58.5625 C 22.832031 59.769531 23.78125 60.53125 24.859375 60.53125 C 25.792969 60.53125 26.664062 59.925781 27.304688 58.933594 Z M 65.507812 45.722656 C 67.734375 45.722656 69.574219 48.375 69.882812 51.832031 C 69.121094 49.351562 67.453125 47.628906 65.519531 47.628906 C 63.542969 47.628906 61.859375 49.410156 61.128906 51.941406 C 61.410156 48.433594 63.261719 45.722656 65.507812 45.722656 Z M 14.402344 41.984375 L 14.265625 33.890625 C 14.277344 31.703125 15.820312 30.011719 18.15625 29.097656 C 28.738281 24.925781 68.324219 10.890625 79.480469 9.277344 C 83.109375 16.9375 86.585938 28.183594 89.855469 43.300781 C 89.15625 33.300781 87.300781 23.761719 84.605469 14.597656 C 85.929688 14.738281 87.582031 14.953125 88.921875 15.1875 C 90.355469 17.449219 92.457031 24.335938 92.816406 26.136719 C 92.894531 26.570312 96.773438 26.910156 96.480469 25.25 C 96.445312 25.003906 96.355469 24.601562 96.230469 24.074219 L 96.246094 24.074219 C 96.246094 24.074219 96.199219 23.871094 96.105469 23.515625 C 95.808594 22.335938 95.371094 20.785156 94.84375 19.34375 C 94.71875 19.046875 94.609375 18.753906 94.484375 18.476562 C 94.046875 17.328125 93.550781 16.210938 93.019531 15.390625 C 92.894531 15.171875 92.816406 15.046875 92.816406 15.046875 L 92.769531 15.03125 C 92.425781 14.582031 92.085938 14.257812 91.742188 14.101562 C 90.324219 13.480469 86.320312 12.96875 84.046875 12.738281 C 83.71875 11.636719 83.375 10.550781 83.015625 9.464844 C 90.089844 9.976562 96.324219 11.15625 103.691406 12.875 C 104.8125 13.589844 105.890625 14.582031 106.902344 15.777344 C 108.617188 16.039062 113.898438 16.910156 115.144531 17.746094 C 115.347656 17.886719 115.5625 18.117188 115.78125 18.414062 L 115.828125 18.429688 C 115.828125 18.429688 117.058594 20.101562 118.011719 21.980469 C 118.992188 23.964844 119.691406 26.167969 119.878906 26.863281 C 120.238281 28.226562 116.34375 27.949219 116.25 27.59375 C 115.8125 26.089844 113.429688 20.335938 111.902344 18.503906 C 110.8125 18.257812 109.535156 18.023438 108.445312 17.839844 C 110.90625 21.484375 112.992188 26.445312 114.613281 32.011719 C 111.15625 32.679688 107.570312 33.238281 103.800781 33.996094 C 106.480469 33.90625 110.640625 33.640625 114.925781 33.160156 C 115.144531 33.953125 115.363281 34.742188 115.550781 35.546875 C 111.125 36.695312 106.480469 37.53125 101.558594 38.386719 C 104.921875 38.355469 110.609375 38.136719 116.015625 37.519531 C 116.125 38.015625 116.21875 38.511719 116.328125 38.992188 C 110.78125 40.558594 105 41.457031 98.707031 42.355469 C 102.835938 42.449219 110.484375 42.308594 116.808594 41.488281 C 116.875 41.890625 116.933594 42.277344 116.996094 42.683594 C 110.546875 44.605469 103.847656 45.300781 96.433594 46.234375 C 101.199219 46.433594 110.71875 46.511719 117.433594 45.457031 C 117.496094 45.984375 117.574219 46.527344 117.636719 47.070312 C 110.984375 48.449219 101.464844 48.886719 91.367188 47.304688 C 90.871094 47.226562 90.402344 47.101562 89.964844 46.945312 L 90.230469 55.707031 L 88.097656 45.9375 C 83.671875 42.667969 82.535156 34.957031 77.347656 34.957031 L 78.1875 54.636719 L 87.003906 56.328125 L 76.398438 56.171875 L 75.648438 32.878906 L 75.664062 32.878906 L 74.261719 14.425781 L 74.121094 35.003906 C 70.570312 35.300781 64.226562 36.167969 56.96875 37.253906 L 55.628906 19.542969 C 66.722656 15.636719 76.023438 12.394531 76.023438 12.394531 L 20.589844 30.058594 C 16.445312 30.878906 16.445312 34.402344 16.242188 37.75 C 16.242188 37.75 17.082031 33.996094 19.125 32.726562 C 19.359375 32.554688 22.195312 31.484375 26.476562 29.917969 L 26.382812 42.125 C 21.648438 42.914062 17.894531 43.550781 15.929688 43.875 L 14.496094 55.816406 L 14.402344 41.984375 " fill-opacity="1" fill-rule="evenodd"/></g></svg>