<svg xmlns="http://www.w3.org/2000/svg" xmlns:xlink="http://www.w3.org/1999/xlink" width="180" zoomAndPan="magnify" viewBox="0 0 135 74.999997" height="100" preserveAspectRatio="xMidYMid meet" version="1.0"><defs><filter x="0%" y="0%" width="100%" height="100%" id="2fc0a55784"><feColorMatrix values="0 0 0 0 1 0 0 0 0 1 0 0 0 0 1 0 0 0 1 0" color-interpolation-filters="sRGB"/></filter><clipPath id="314aa543f1"><path d="M 68 72 L 121.746094 72 L 121.746094 75 L 68 75 Z M 68 72 " clip-rule="nonzero"/></clipPath><clipPath id="5d00f24d6a"><path d="M 68 71 L 121.746094 71 L 121.746094 75 L 68 75 Z M 68 71 " clip-rule="nonzero"/></clipPath><mask id="db8d11cf1b"><g filter="url(#2fc0a55784)"><rect x="-13.5" width="162" fill="#000000" y="-7.5" height="89.999996" fill-opacity="0.2667"/></g></mask><clipPath id="d7a0b340df"><path d="M 0.398438 1 L 53.746094 1 L 53.746094 4 L 0.398438 4 Z M 0.398438 1 " clip-rule="nonzero"/></clipPath><clipPath id="012117cadc"><rect x="0" width="54" y="0" height="4"/></clipPath><mask id="d15ac0a4a5"><g filter="url(#2fc0a55784)"><rect x="-13.5" width="162" fill="#000000" y="-7.5" height="89.999996" fill-opacity="0.4588"/></g></mask><clipPath id="fd7b9edff6"><path d="M 0.558594 0.078125 L 28.640625 0.078125 L 28.640625 23.839844 L 0.558594 23.839844 Z M 0.558594 0.078125 " clip-rule="nonzero"/></clipPath><clipPath id="e6e61ec6bb"><rect x="0" width="29" y="0" height="24"/></clipPath><mask id="b261de8ca7"><g filter="url(#2fc0a55784)"><rect x="-13.5" width="162" fill="#000000" y="-7.5" height="89.999996" fill-opacity="0.5569"/></g></mask><clipPath id="db9aab72e9"><path d="M 0.359375 0.398438 L 3 0.398438 L 3 1.839844 L 0.359375 1.839844 Z M 0.359375 0.398438 " clip-rule="nonzero"/></clipPath><clipPath id="02289178a3"><rect x="0" width="3" y="0" height="2"/></clipPath></defs><rect x="-13.5" width="162" fill="#ffffff" y="-7.5" height="89.999996" fill-opacity="1"/><rect x="-13.5" width="162" fill="#ffcd39" y="-7.5" height="89.999996" fill-opacity="1"/><path fill="#000000" d="M 39.289062 11.929688 C 39.160156 13 39.03125 14.085938 39.179688 15.15625 C 39.226562 15.496094 39.300781 15.84375 39.476562 16.140625 C 39.652344 16.441406 39.9375 16.6875 40.277344 16.75 C 40.589844 16.453125 41.023438 16.097656 41.214844 15.707031 C 41.457031 15.207031 41.457031 14.621094 41.398438 14.066406 C 41.335938 13.496094 41.210938 12.910156 40.878906 12.4375 C 40.546875 11.964844 39.855469 11.832031 39.289062 11.929688 Z M 39.289062 11.929688 " fill-opacity="1" fill-rule="nonzero"/><path fill="#007785" d="M 55.90625 75.339844 C 55.878906 71.121094 55.460938 66.433594 55.371094 63.8125 C 54.945312 51.0625 54.257812 49.71875 54.257812 49.71875 L 41.511719 50.9375 L 31.285156 52.1875 L 29.277344 80.171875 L 42.808594 80.210938 L 43.703125 72.339844 L 43.84375 80.214844 L 55.894531 80.25 Z M 55.90625 75.339844 " fill-opacity="1" fill-rule="nonzero"/><path fill="#000000" d="M 43.703125 72.429688 C 43.667969 72.429688 43.632812 72.410156 43.621094 72.375 C 43.597656 72.328125 43.621094 72.273438 43.667969 72.253906 L 49.097656 69.914062 C 49.144531 69.894531 49.199219 69.914062 49.21875 69.960938 C 49.238281 70.007812 49.21875 70.0625 49.167969 70.082031 L 43.742188 72.425781 C 43.730469 72.429688 43.714844 72.429688 43.703125 72.429688 Z M 43.703125 72.429688 " fill-opacity="1" fill-rule="nonzero"/><g clip-path="url(#314aa543f1)"><path fill="#ffffff" d="M 68.511719 72.15625 L 121.628906 72.15625 L 121.628906 75.03125 L 68.511719 75.03125 Z M 68.511719 72.15625 " fill-opacity="1" fill-rule="nonzero"/></g><g clip-path="url(#5d00f24d6a)"><g mask="url(#db8d11cf1b)"><g transform="matrix(1, 0, 0, 1, 68, 71)"><g clip-path="url(#012117cadc)"><g clip-path="url(#d7a0b340df)"><path fill="#000000" d="M 0.511719 1.15625 L 53.628906 1.15625 L 53.628906 4.03125 L 0.511719 4.03125 Z M 0.511719 1.15625 " fill-opacity="1" fill-rule="nonzero"/></g></g></g></g></g><path fill="#000000" d="M 96.414062 31.90625 L 93.199219 50.03125 L 108.410156 51.492188 L 107.863281 34.945312 Z M 96.414062 31.90625 " fill-opacity="1" fill-rule="nonzero"/><path fill="#f8b498" d="M 101.808594 38.285156 L 102.5625 49.53125 L 97.074219 49.644531 L 97.191406 42.230469 Z M 101.808594 38.285156 " fill-opacity="1" fill-rule="nonzero"/><path fill="#7269e5" d="M 95.3125 48.433594 L 94.664062 48.511719 C 93.097656 48.699219 91.214844 50.179688 90.652344 51.65625 L 86.429688 61.582031 L 88.195312 54.210938 L 82.933594 53.148438 L 80.820312 63.257812 C 80.390625 64.769531 80.316406 66.355469 80.601562 67.902344 C 80.90625 69.566406 82.339844 70.785156 84.027344 70.816406 C 85.941406 70.851562 87.730469 69.867188 88.730469 68.234375 L 92.117188 62.707031 L 95.925781 71.957031 L 115.511719 73.394531 C 117.6875 73.554688 119.65625 72.097656 120.144531 69.964844 C 120.566406 68.113281 120.304688 66.164062 119.402344 64.492188 L 113.460938 52.566406 C 113.1875 52.023438 112.832031 51.503906 112.40625 51.023438 C 110.851562 49.253906 108.566406 48.300781 106.210938 48.292969 L 103.1875 48.28125 Z M 95.3125 48.433594 " fill-opacity="1" fill-rule="nonzero"/><path fill="#000000" d="M 94.207031 33.386719 C 94.207031 33.386719 90.347656 30.359375 94.296875 27.878906 C 96.996094 26.1875 101.597656 28.433594 101.597656 28.433594 Z M 94.207031 33.386719 " fill-opacity="1" fill-rule="nonzero"/><path fill="#000000" d="M 101.816406 28.476562 C 102.292969 28.578125 102.757812 28.714844 103.210938 28.890625 C 103.664062 29.066406 104.097656 29.273438 104.507812 29.519531 C 104.917969 29.765625 105.300781 30.039062 105.652344 30.347656 C 106.003906 30.652344 106.316406 30.980469 106.597656 31.335938 C 106.878906 31.691406 107.117188 32.0625 107.3125 32.453125 C 107.511719 32.839844 107.660156 33.242188 107.769531 33.652344 C 107.875 34.058594 107.933594 34.472656 107.945312 34.886719 C 107.957031 35.300781 107.921875 35.707031 107.839844 36.109375 C 107.757812 36.511719 107.628906 36.902344 107.453125 37.277344 C 107.28125 37.652344 107.0625 38.007812 106.804688 38.339844 C 106.542969 38.675781 106.246094 38.980469 105.910156 39.261719 C 105.578125 39.542969 105.210938 39.789062 104.816406 40.003906 C 104.417969 40.21875 103.996094 40.394531 103.554688 40.539062 C 103.109375 40.679688 102.652344 40.78125 102.179688 40.84375 C 101.703125 40.90625 101.226562 40.929688 100.738281 40.910156 C 100.253906 40.890625 99.773438 40.832031 99.292969 40.734375 C 98.816406 40.636719 98.351562 40.5 97.898438 40.324219 C 97.445312 40.148438 97.011719 39.9375 96.601562 39.691406 C 96.191406 39.449219 95.8125 39.171875 95.457031 38.867188 C 95.105469 38.5625 94.792969 38.230469 94.511719 37.875 C 94.230469 37.523438 93.992188 37.152344 93.796875 36.761719 C 93.601562 36.371094 93.449219 35.972656 93.339844 35.5625 C 93.234375 35.152344 93.175781 34.742188 93.164062 34.328125 C 93.152344 33.914062 93.1875 33.503906 93.269531 33.101562 C 93.351562 32.699219 93.480469 32.3125 93.65625 31.9375 C 93.828125 31.5625 94.046875 31.207031 94.304688 30.871094 C 94.566406 30.539062 94.863281 30.230469 95.199219 29.953125 C 95.53125 29.671875 95.898438 29.425781 96.292969 29.210938 C 96.691406 28.996094 97.113281 28.816406 97.554688 28.675781 C 98 28.535156 98.457031 28.433594 98.929688 28.371094 C 99.40625 28.304688 99.882812 28.285156 100.371094 28.300781 C 100.855469 28.320312 101.335938 28.378906 101.816406 28.476562 Z M 101.816406 28.476562 " fill-opacity="1" fill-rule="nonzero"/><path fill="#000000" d="M 97.191406 42.230469 L 101.238281 41.738281 L 97.128906 46.136719 Z M 97.191406 42.230469 " fill-opacity="1" fill-rule="nonzero"/><path fill="#f8b498" d="M 103.078125 38.828125 C 101.234375 43.667969 97.203125 43.253906 97.203125 43.253906 C 93.78125 43.203125 92.109375 41 91.789062 38.3125 C 91.542969 36.246094 92.917969 33.183594 93.65625 31.4375 C 93.90625 30.847656 94.328125 30.339844 94.890625 30.03125 C 99.710938 27.40625 106.011719 31.117188 103.078125 38.828125 Z M 103.078125 38.828125 " fill-opacity="1" fill-rule="nonzero"/><path fill="#000000" d="M 94.210938 37.988281 L 93.75 37.800781 C 93.597656 37.722656 93.535156 37.539062 93.609375 37.371094 L 94.085938 36.605469 C 94.117188 36.550781 94.191406 36.535156 94.246094 36.566406 C 94.300781 36.601562 94.316406 36.671875 94.28125 36.726562 L 93.816406 37.476562 C 93.796875 37.519531 93.816406 37.570312 93.847656 37.585938 L 94.300781 37.769531 C 94.359375 37.796875 94.386719 37.863281 94.363281 37.921875 C 94.34375 37.96875 94.300781 37.996094 94.253906 37.996094 C 94.238281 37.996094 94.226562 37.992188 94.210938 37.988281 Z M 94.210938 37.988281 " fill-opacity="1" fill-rule="nonzero"/><path fill="#000000" d="M 97.351562 36.257812 C 97.351562 36.386719 97.304688 36.5 97.210938 36.59375 C 97.121094 36.683594 97.007812 36.730469 96.878906 36.730469 C 96.746094 36.730469 96.636719 36.683594 96.542969 36.59375 C 96.449219 36.5 96.402344 36.386719 96.402344 36.257812 C 96.402344 36.125 96.449219 36.015625 96.542969 35.921875 C 96.636719 35.828125 96.746094 35.78125 96.878906 35.78125 C 97.007812 35.78125 97.121094 35.828125 97.210938 35.921875 C 97.304688 36.015625 97.351562 36.125 97.351562 36.257812 Z M 97.351562 36.257812 " fill-opacity="1" fill-rule="nonzero"/><path fill="#000000" d="M 93.269531 35.039062 C 93.03125 34.996094 92.804688 35.160156 92.765625 35.398438 C 92.722656 35.636719 92.886719 35.863281 93.125 35.90625 C 93.363281 35.945312 93.589844 35.785156 93.628906 35.542969 C 93.671875 35.304688 93.507812 35.078125 93.269531 35.039062 Z M 93.269531 35.039062 " fill-opacity="1" fill-rule="nonzero"/><path fill="#000000" d="M 93.539062 39 C 93.488281 38.964844 93.472656 38.894531 93.507812 38.839844 C 93.542969 38.785156 93.613281 38.769531 93.667969 38.804688 C 93.679688 38.8125 94.9375 39.621094 96.199219 38.886719 C 96.253906 38.855469 96.324219 38.875 96.355469 38.929688 C 96.390625 38.984375 96.371094 39.058594 96.316406 39.089844 C 95.875 39.347656 95.441406 39.433594 95.050781 39.433594 C 94.210938 39.433594 93.578125 39.023438 93.539062 39 Z M 93.539062 39 " fill-opacity="1" fill-rule="nonzero"/><path fill="#000000" d="M 93.414062 32.523438 C 92.792969 32.53125 92.402344 32.839844 92.210938 33.046875 C 92.113281 33.152344 92.09375 33.300781 92.148438 33.429688 C 92.21875 33.589844 92.394531 33.675781 92.5625 33.632812 C 92.859375 33.5625 93.183594 33.570312 93.691406 33.570312 C 94.363281 33.574219 94.277344 33.019531 94.277344 33.019531 C 94.277344 33.019531 94.210938 32.515625 93.414062 32.523438 Z M 93.414062 32.523438 " fill-opacity="1" fill-rule="nonzero"/><path fill="#000000" d="M 97.792969 33.261719 C 98.554688 33.488281 99.253906 34.183594 99.425781 34.449219 C 99.507812 34.582031 99.484375 34.730469 99.375 34.832031 C 99.234375 34.960938 98.992188 34.980469 98.796875 34.882812 C 98.453125 34.707031 97.730469 34.335938 97.101562 34.15625 C 96.273438 33.921875 96.5625 33.425781 96.5625 33.425781 C 96.5625 33.425781 96.8125 32.972656 97.792969 33.261719 Z M 97.792969 33.261719 " fill-opacity="1" fill-rule="nonzero"/><path fill="#000000" d="M 105.324219 34.019531 C 95.210938 32.890625 96.675781 28.863281 96.675781 28.863281 C 106.882812 28.308594 105.324219 34.019531 105.324219 34.019531 Z M 105.324219 34.019531 " fill-opacity="1" fill-rule="nonzero"/><path fill="#000000" d="M 107.3125 35.558594 L 101.902344 38.789062 L 102.355469 32.648438 Z M 107.3125 35.558594 " fill-opacity="1" fill-rule="nonzero"/><path fill="#f8b498" d="M 104.566406 37.296875 C 103.488281 36.710938 102.136719 37.113281 101.546875 38.195312 C 100.960938 39.277344 101.363281 40.628906 102.441406 41.214844 C 103.523438 41.804688 104.875 41.402344 105.460938 40.320312 C 106.046875 39.238281 105.648438 37.886719 104.566406 37.296875 Z M 104.566406 37.296875 " fill-opacity="1" fill-rule="nonzero"/><path fill="#f8b498" d="M 102.609375 39.597656 C 103.242188 38.023438 104.617188 38.824219 104.617188 38.824219 " fill-opacity="1" fill-rule="nonzero"/><path fill="#f8b498" d="M 97.953125 51.25 C 93.6875 51.25 95.3125 48.433594 95.3125 48.433594 L 96.824219 48.191406 L 104.152344 48.261719 C 104.054688 48.707031 102.21875 51.25 97.953125 51.25 Z M 97.953125 51.25 " fill-opacity="1" fill-rule="nonzero"/><path fill="#f8b498" d="M 101.042969 67.523438 L 95.546875 68.285156 L 95.644531 71.035156 L 101.164062 72.171875 C 101.164062 72.171875 101.066406 68.472656 101.042969 67.523438 Z M 101.042969 67.523438 " fill-opacity="1" fill-rule="nonzero"/><path fill="#000000" d="M 92.007812 62.746094 C 92 62.722656 91.203125 60.460938 91.648438 57.933594 C 92.085938 55.429688 92.457031 54.300781 92.460938 54.289062 C 92.480469 54.230469 92.546875 54.195312 92.605469 54.21875 C 92.667969 54.238281 92.699219 54.304688 92.679688 54.363281 C 92.675781 54.375 92.3125 55.488281 91.875 57.972656 C 91.445312 60.4375 92.21875 62.644531 92.226562 62.667969 C 92.25 62.726562 92.21875 62.792969 92.15625 62.816406 C 92.144531 62.820312 92.132812 62.824219 92.117188 62.824219 C 92.070312 62.824219 92.027344 62.792969 92.007812 62.746094 Z M 92.007812 62.746094 " fill-opacity="1" fill-rule="nonzero"/><path fill="#000000" d="M 94.136719 62.136719 L 94.578125 61.265625 L 95.527344 61.726562 L 95.105469 62.601562 Z M 94.136719 62.136719 " fill-opacity="1" fill-rule="nonzero"/><path fill="#000000" d="M 89.527344 72.8125 L 89.382812 73.355469 C 89.351562 73.472656 89.4375 73.507812 89.503906 73.40625 L 89.828125 72.933594 C 89.78125 72.800781 89.660156 72.746094 89.527344 72.8125 Z M 89.527344 72.8125 " fill-opacity="1" fill-rule="nonzero"/><path fill="#007785" d="M 94.171875 62.050781 L 94.660156 62.285156 L 95.144531 62.515625 L 91.050781 71.25 L 91.03125 71.296875 L 91.023438 71.292969 L 89.800781 72.996094 C 89.746094 72.871094 89.628906 72.820312 89.496094 72.871094 L 89.984375 70.867188 L 89.972656 70.859375 L 90 70.796875 Z M 94.171875 62.050781 " fill-opacity="1" fill-rule="nonzero"/><path fill="#f8b498" d="M 94.535156 61.351562 L 94.648438 61.128906 C 94.800781 60.824219 95.136719 60.679688 95.394531 60.808594 C 95.644531 60.933594 95.734375 61.269531 95.597656 61.574219 L 95.488281 61.808594 Z M 94.535156 61.351562 " fill-opacity="1" fill-rule="nonzero"/><path fill="#f8b498" d="M 87.089844 72.53125 C 87.316406 72.617188 87.566406 72.570312 87.742188 72.414062 L 89.296875 71.019531 C 90.015625 70.375 91.152344 69.921875 92.074219 70.390625 C 92.359375 70.539062 92.589844 70.777344 92.847656 70.964844 C 93.5 71.4375 94.289062 71.390625 95.042969 71.214844 C 95.574219 71.09375 96.082031 70.875 96.539062 70.578125 C 96.675781 70.488281 96.8125 70.390625 96.9375 70.285156 C 96.957031 70.269531 97.070312 70.195312 97.074219 70.164062 C 97.074219 70.164062 97.15625 68.195312 97.15625 68.195312 L 91.398438 68.109375 C 90.328125 68.09375 89.3125 68.546875 88.613281 69.363281 L 86.8125 71.460938 C 86.511719 71.808594 86.65625 72.367188 87.089844 72.53125 Z M 87.089844 72.53125 " fill-opacity="1" fill-rule="nonzero"/><path fill="#000000" d="M 101.09375 67.515625 C 101.082031 67.453125 101.125 67.390625 101.1875 67.378906 L 111.421875 65.511719 L 108.304688 58.898438 C 108.277344 58.839844 108.300781 58.773438 108.359375 58.746094 C 108.417969 58.71875 108.488281 58.742188 108.515625 58.800781 L 111.695312 65.546875 C 111.710938 65.582031 111.710938 65.621094 111.695312 65.652344 C 111.675781 65.683594 111.648438 65.707031 111.613281 65.714844 L 101.230469 67.609375 C 101.222656 67.613281 101.214844 67.613281 101.207031 67.613281 C 101.152344 67.613281 101.101562 67.570312 101.09375 67.515625 Z M 101.09375 67.515625 " fill-opacity="1" fill-rule="nonzero"/><path fill="#007785" d="M 67.363281 52.785156 L 92.976562 52.785156 L 99.007812 71.613281 L 73.425781 71.613281 Z M 67.363281 52.785156 " fill-opacity="1" fill-rule="nonzero"/><path fill="#007785" d="M 73.425781 71.15625 L 107.3125 71.15625 L 107.3125 73.5625 L 73.425781 73.5625 Z M 73.425781 71.15625 " fill-opacity="1" fill-rule="nonzero"/><path fill="#ffffff" d="M 83.621094 64.398438 C 83.621094 64.621094 83.578125 64.835938 83.492188 65.039062 C 83.40625 65.246094 83.285156 65.429688 83.128906 65.585938 C 82.972656 65.742188 82.789062 65.863281 82.585938 65.949219 C 82.378906 66.035156 82.167969 66.078125 81.945312 66.078125 C 81.722656 66.078125 81.507812 66.035156 81.304688 65.949219 C 81.097656 65.863281 80.917969 65.742188 80.757812 65.585938 C 80.601562 65.429688 80.480469 65.246094 80.394531 65.039062 C 80.3125 64.835938 80.269531 64.621094 80.269531 64.398438 C 80.269531 64.175781 80.3125 63.960938 80.394531 63.757812 C 80.480469 63.550781 80.601562 63.371094 80.757812 63.210938 C 80.917969 63.054688 81.097656 62.933594 81.304688 62.847656 C 81.507812 62.761719 81.722656 62.722656 81.945312 62.722656 C 82.167969 62.722656 82.378906 62.761719 82.585938 62.847656 C 82.789062 62.933594 82.972656 63.054688 83.128906 63.210938 C 83.285156 63.371094 83.40625 63.550781 83.492188 63.757812 C 83.578125 63.960938 83.621094 64.175781 83.621094 64.398438 Z M 83.621094 64.398438 " fill-opacity="1" fill-rule="nonzero"/><path fill="#f8b498" d="M 32.726562 33.496094 C 32.726562 33.496094 19.972656 50.546875 19.972656 50.546875 C 17.140625 54.480469 10.875 50.25 13.496094 46.144531 L 20.988281 34.929688 Z M 32.726562 33.496094 " fill-opacity="1" fill-rule="nonzero"/><path fill="#7269e5" d="M 28.519531 44.464844 L 17.101562 36.9375 C 19.949219 32.527344 27.15625 20.308594 31.886719 21.867188 C 44.742188 26.921875 30.636719 40.984375 28.519531 44.464844 Z M 28.519531 44.464844 " fill-opacity="1" fill-rule="nonzero"/><path fill="#7269e5" d="M 53.597656 35.617188 L 59.214844 34.320312 C 58.886719 22.265625 50.703125 21.730469 50.703125 21.730469 Z M 53.597656 35.617188 " fill-opacity="1" fill-rule="nonzero"/><path fill="#7269e5" d="M 27.699219 29.542969 L 30.949219 53.148438 L 51.140625 53.148438 C 52.964844 45.175781 59.542969 24.15625 51.773438 21.949219 C 44.90625 19.996094 39.84375 19.996094 30.699219 21.679688 C 27.839844 21.855469 28.539062 27.644531 27.699219 29.542969 Z M 27.699219 29.542969 " fill-opacity="1" fill-rule="nonzero"/><path fill="#000000" d="M 30.25 43.179688 L 28.074219 33.960938 C 28.058594 33.90625 28.09375 33.855469 28.144531 33.84375 C 28.199219 33.828125 28.25 33.863281 28.265625 33.914062 L 30.441406 43.132812 C 30.453125 43.1875 30.421875 43.238281 30.367188 43.253906 C 30.359375 43.253906 30.351562 43.253906 30.347656 43.253906 C 30.300781 43.253906 30.261719 43.222656 30.25 43.179688 Z M 30.25 43.179688 " fill-opacity="1" fill-rule="nonzero"/><path fill="#000000" d="M 53.804688 40.101562 C 53.75 40.09375 53.714844 40.042969 53.722656 39.988281 L 55.03125 30.769531 C 55.039062 30.714844 55.085938 30.679688 55.144531 30.6875 C 55.199219 30.695312 55.234375 30.746094 55.226562 30.796875 L 53.914062 40.015625 C 53.910156 40.066406 53.867188 40.101562 53.820312 40.101562 C 53.8125 40.101562 53.808594 40.101562 53.804688 40.101562 Z M 53.804688 40.101562 " fill-opacity="1" fill-rule="nonzero"/><path fill="#f8b498" d="M 40.191406 44.082031 L 47.472656 44.332031 L 50.703125 37.453125 C 42.375 34.121094 39.195312 39.757812 39.195312 39.757812 Z M 40.191406 44.082031 " fill-opacity="1" fill-rule="nonzero"/><path fill="#f8b498" d="M 40.546875 43.953125 L 18.128906 51.960938 L 16.820312 43.601562 L 39.703125 39.671875 Z M 40.546875 43.953125 " fill-opacity="1" fill-rule="nonzero"/><path fill="#000000" d="M 19.3125 43.171875 C 19.304688 43.117188 19.339844 43.070312 19.394531 43.058594 L 24.863281 42.121094 C 24.921875 42.109375 24.96875 42.148438 24.976562 42.199219 C 24.984375 42.253906 24.949219 42.304688 24.898438 42.3125 L 19.425781 43.253906 C 19.421875 43.253906 19.417969 43.253906 19.410156 43.253906 C 19.363281 43.253906 19.320312 43.222656 19.3125 43.171875 Z M 19.3125 43.171875 " fill-opacity="1" fill-rule="nonzero"/><path fill="#ffffff" d="M 71.78125 33.828125 C 65.015625 31.53125 48.480469 34.320312 48.480469 34.320312 L 39.265625 55.992188 L 40.785156 57.679688 Z M 71.78125 33.828125 " fill-opacity="1" fill-rule="nonzero"/><path fill="#000000" d="M 61.976562 52.730469 C 60.585938 55.429688 56.769531 55.449219 56.769531 55.449219 L 67.339844 34.433594 L 71.777344 33.828125 Z M 61.976562 52.730469 " fill-opacity="1" fill-rule="nonzero"/><path fill="#007785" d="M 57.484375 55.347656 L 40.785156 57.679688 L 49.773438 35.957031 L 68.183594 34.320312 Z M 57.484375 55.347656 " fill-opacity="1" fill-rule="nonzero"/><g mask="url(#d15ac0a4a5)"><g transform="matrix(1, 0, 0, 1, 40, 34)"><g clip-path="url(#e6e61ec6bb)"><g clip-path="url(#fd7b9edff6)"><path fill="#000000" d="M 17.484375 21.347656 L 0.785156 23.679688 L 9.773438 1.957031 L 28.183594 0.320312 Z M 17.484375 21.347656 " fill-opacity="1" fill-rule="nonzero"/></g></g></g></g><path fill="#ffffff" d="M 63.375 33.3125 L 67.492188 23.84375 L 69.613281 23.84375 L 71.777344 33.828125 Z M 63.375 33.3125 " fill-opacity="1" fill-rule="nonzero"/><path fill="#f8b498" d="M 64.484375 47.855469 L 59.9375 44.527344 C 59.667969 44.332031 59.585938 43.96875 59.738281 43.675781 C 59.90625 43.359375 60.292969 43.230469 60.617188 43.382812 L 63.988281 44.996094 L 60.039062 42.113281 C 59.792969 41.933594 59.710938 41.605469 59.847656 41.332031 C 60 41.019531 60.382812 40.894531 60.691406 41.054688 L 64.574219 43.070312 L 60.253906 39.683594 C 59.957031 39.449219 59.878906 39.03125 60.074219 38.707031 C 60.292969 38.34375 60.769531 38.234375 61.125 38.46875 L 65.785156 41.539062 L 62.703125 38.574219 C 62.476562 38.355469 62.476562 37.992188 62.699219 37.777344 C 62.890625 37.589844 63.1875 37.566406 63.402344 37.722656 L 68.597656 41.382812 C 68.597656 41.382812 70.609375 43.066406 68.535156 46.234375 C 66.460938 49.40625 64.011719 48.808594 64.011719 48.808594 Z M 64.484375 47.855469 " fill-opacity="1" fill-rule="nonzero"/><path fill="#000000" d="M 51.089844 9.746094 C 55.796875 5.210938 50.714844 3.351562 50.714844 3.351562 Z M 51.089844 9.746094 " fill-opacity="1" fill-rule="nonzero"/><path fill="#f8b498" d="M 41.699219 10.789062 L 38.800781 22.195312 L 45.574219 22.417969 L 46.667969 16.144531 Z M 41.699219 10.789062 " fill-opacity="1" fill-rule="nonzero"/><path fill="#000000" d="M 46.554688 16.847656 L 41.300781 14.144531 C 41.144531 18.394531 46 19.96875 46 19.96875 Z M 46.554688 16.847656 " fill-opacity="1" fill-rule="nonzero"/><path fill="#f8b498" d="M 39.957031 10.347656 C 39.746094 16.417969 43.269531 17.210938 43.269531 17.210938 C 46.347656 18.613281 48.710938 17.523438 50.117188 15.234375 C 51.21875 13.433594 51.480469 8.988281 51.539062 7.167969 C 51.558594 6.625 51.070312 5.007812 50.761719 4.5625 C 47.601562 -0.00390625 40.273438 1.296875 39.957031 10.347656 Z M 39.957031 10.347656 " fill-opacity="1" fill-rule="nonzero"/><path fill="#000000" d="M 49.757812 11.433594 C 49.996094 11.429688 50.199219 11.621094 50.203125 11.863281 C 50.210938 12.105469 50.015625 12.304688 49.777344 12.3125 C 49.535156 12.316406 49.335938 12.125 49.328125 11.882812 C 49.324219 11.640625 49.515625 11.441406 49.757812 11.433594 Z M 49.757812 11.433594 " fill-opacity="1" fill-rule="nonzero"/><path fill="#000000" d="M 45.964844 10.617188 C 46.207031 10.613281 46.410156 10.804688 46.414062 11.046875 C 46.417969 11.289062 46.226562 11.488281 45.984375 11.496094 C 45.746094 11.5 45.542969 11.308594 45.539062 11.066406 C 45.53125 10.824219 45.722656 10.625 45.964844 10.617188 Z M 45.964844 10.617188 " fill-opacity="1" fill-rule="nonzero"/><path fill="#000000" d="M 47.574219 13.589844 C 47.574219 13.519531 47.628906 13.460938 47.699219 13.457031 L 48.292969 13.441406 L 48.179688 12.023438 C 48.175781 11.953125 48.226562 11.894531 48.296875 11.886719 C 48.363281 11.875 48.425781 11.933594 48.433594 12.003906 L 48.554688 13.554688 C 48.558594 13.589844 48.546875 13.625 48.523438 13.648438 C 48.5 13.675781 48.464844 13.691406 48.429688 13.691406 L 47.707031 13.710938 C 47.703125 13.710938 47.703125 13.710938 47.703125 13.710938 C 47.632812 13.710938 47.578125 13.65625 47.574219 13.589844 Z M 47.574219 13.589844 " fill-opacity="1" fill-rule="nonzero"/><path fill="#000000" d="M 46.796875 8.015625 C 45.546875 7.730469 44.761719 8.097656 44.261719 8.347656 C 44.015625 8.472656 43.867188 8.71875 43.941406 8.984375 C 44.015625 9.257812 44.296875 9.410156 44.574219 9.34375 C 45.320312 9.164062 46.109375 9.175781 46.644531 9.214844 C 47 9.242188 47.300781 8.957031 47.292969 8.597656 C 47.285156 8.308594 47.074219 8.078125 46.796875 8.015625 Z M 46.796875 8.015625 " fill-opacity="1" fill-rule="nonzero"/><path fill="#000000" d="M 49.636719 8.660156 C 50.476562 8.773438 50.855469 9.355469 51.089844 9.746094 C 51.203125 9.933594 51.226562 10.210938 51.109375 10.4375 C 50.988281 10.671875 50.773438 10.730469 50.625 10.585938 C 50.21875 10.1875 49.738281 9.957031 49.398438 9.832031 C 49.175781 9.75 49.070312 9.390625 49.171875 9.054688 C 49.253906 8.789062 49.449219 8.636719 49.636719 8.660156 Z M 49.636719 8.660156 " fill-opacity="1" fill-rule="nonzero"/><path fill="#000000" d="M 38.410156 6.265625 C 38.710938 4.644531 39.644531 3.191406 41.210938 2.292969 C 43.21875 1.140625 45.828125 0.867188 48.160156 1.144531 C 50.113281 1.375 51.761719 2.34375 52.25 4.113281 C 52.972656 6.75 50.667969 7.578125 49.503906 7.515625 C 48.921875 7.484375 48.371094 7.296875 47.871094 7.03125 C 46.066406 6.078125 43.425781 5.648438 43.425781 5.648438 C 43.058594 9.800781 39.921875 11.777344 39.921875 11.777344 C 39.921875 11.777344 38.050781 8.214844 38.410156 6.265625 Z M 38.410156 6.265625 " fill-opacity="1" fill-rule="nonzero"/><path fill="#f8b498" d="M 39.664062 7.992188 C 40.839844 7.921875 41.851562 8.820312 41.921875 10 C 41.992188 11.179688 41.097656 12.195312 39.917969 12.265625 C 38.742188 12.335938 37.726562 11.4375 37.65625 10.257812 C 37.585938 9.078125 38.484375 8.0625 39.664062 7.992188 Z M 39.664062 7.992188 " fill-opacity="1" fill-rule="nonzero"/><path fill="#000000" d="M 40.503906 11 C 40.503906 10.484375 40.359375 10.089844 40.078125 9.820312 C 39.640625 9.402344 39.007812 9.421875 39.003906 9.421875 C 38.941406 9.425781 38.875 9.371094 38.871094 9.300781 C 38.867188 9.230469 38.921875 9.171875 38.992188 9.167969 C 39.023438 9.167969 39.734375 9.144531 40.25 9.632812 C 40.585938 9.953125 40.757812 10.414062 40.757812 11 C 40.757812 11.070312 40.699219 11.125 40.632812 11.125 C 40.5625 11.125 40.503906 11.070312 40.503906 11 Z M 40.503906 11 " fill-opacity="1" fill-rule="nonzero"/><path fill="#f8b498" d="M 48.976562 21.695312 C 48.976562 21.695312 47.246094 25.792969 42.734375 25.589844 C 38.222656 25.382812 36.484375 20.78125 36.484375 20.78125 C 43.445312 19.640625 48.976562 21.695312 48.976562 21.695312 Z M 48.976562 21.695312 " fill-opacity="1" fill-rule="nonzero"/><path fill="#000000" d="M 45.429688 14.648438 C 45.394531 14.589844 45.414062 14.511719 45.472656 14.476562 C 45.535156 14.441406 45.613281 14.460938 45.648438 14.519531 C 46.304688 15.644531 48.015625 15.203125 48.03125 15.199219 C 48.097656 15.183594 48.167969 15.222656 48.1875 15.289062 C 48.203125 15.359375 48.164062 15.425781 48.097656 15.445312 C 48.0625 15.453125 47.707031 15.546875 47.246094 15.546875 C 46.640625 15.546875 45.859375 15.382812 45.429688 14.648438 Z M 45.429688 14.648438 " fill-opacity="1" fill-rule="nonzero"/><path fill="#ffffff" d="M 39.265625 20.359375 L 42.90625 24.230469 L 45.878906 20.667969 L 49.371094 21.160156 L 47.292969 29.097656 L 42.945312 26.007812 L 38.367188 28.277344 L 35.8125 20.867188 Z M 39.265625 20.359375 " fill-opacity="1" fill-rule="nonzero"/><path fill="#000000" d="M 42.945312 36.898438 C 42.890625 36.898438 42.84375 36.855469 42.84375 36.800781 L 42.84375 26.234375 C 42.84375 26.175781 42.890625 26.132812 42.945312 26.132812 C 43 26.132812 43.042969 26.175781 43.042969 26.234375 L 43.042969 36.800781 C 43.042969 36.855469 43 36.898438 42.945312 36.898438 Z M 42.945312 36.898438 " fill-opacity="1" fill-rule="nonzero"/><g mask="url(#b261de8ca7)"><g transform="matrix(1, 0, 0, 1, 93, 38)"><g clip-path="url(#02289178a3)"><g clip-path="url(#db9aab72e9)"><path fill="#7269e5" d="M 0.851562 1.289062 C 0.976562 1.472656 1.1875 1.550781 1.386719 1.59375 C 1.828125 1.691406 2.308594 1.660156 2.691406 1.390625 C 2.777344 1.328125 2.867188 1.242188 2.878906 1.125 C 2.894531 1.011719 2.828125 0.902344 2.746094 0.84375 C 2.660156 0.78125 2.558594 0.761719 2.460938 0.75 C 2.050781 0.707031 1.636719 0.78125 1.226562 0.757812 C 1.089844 0.746094 0.90625 0.652344 0.808594 0.78125 C 0.710938 0.910156 0.769531 1.171875 0.851562 1.289062 Z M 0.851562 1.289062 " fill-opacity="1" fill-rule="nonzero"/></g></g></g></g></svg>