<svg xmlns="http://www.w3.org/2000/svg" xmlns:xlink="http://www.w3.org/1999/xlink" width="180" zoomAndPan="magnify" viewBox="0 0 135 74.999997" height="100" preserveAspectRatio="xMidYMid meet" version="1.0"><defs><clipPath id="9dcedd6341"><path d="M 18.527344 17 L 58 17 L 58 56 L 18.527344 56 Z M 18.527344 17 " clip-rule="nonzero"/></clipPath><clipPath id="b2adb55ae5"><path d="M 77 6.761719 L 116.777344 6.761719 L 116.777344 45 L 77 45 Z M 77 6.761719 " clip-rule="nonzero"/></clipPath><clipPath id="dfeb7bd277"><path d="M 48 30 L 88 30 L 88 68.261719 L 48 68.261719 Z M 48 30 " clip-rule="nonzero"/></clipPath></defs><rect x="-13.5" width="162" fill="#ffffff" y="-7.5" height="89.999996" fill-opacity="1"/><rect x="-13.5" width="162" fill="#ffcd39" y="-7.5" height="89.999996" fill-opacity="1"/><g clip-path="url(#9dcedd6341)"><path fill="#f0f0f0" d="M 57.308594 55.902344 L 18.980469 55.902344 C 18.871094 55.902344 18.78125 55.867188 18.703125 55.789062 C 18.625 55.710938 18.585938 55.617188 18.585938 55.511719 L 18.585938 18.253906 C 18.585938 18.144531 18.625 18.050781 18.703125 17.972656 C 18.78125 17.898438 18.871094 17.859375 18.980469 17.859375 L 57.308594 17.859375 C 57.417969 17.859375 57.511719 17.898438 57.589844 17.972656 C 57.667969 18.050781 57.703125 18.144531 57.703125 18.253906 L 57.703125 55.511719 C 57.703125 55.617188 57.667969 55.710938 57.589844 55.789062 C 57.511719 55.867188 57.417969 55.902344 57.308594 55.902344 Z M 57.308594 55.902344 " fill-opacity="1" fill-rule="nonzero"/></g><path fill="#ffffff" d="M 53.144531 21.269531 L 23.148438 21.269531 C 23.039062 21.269531 22.945312 21.308594 22.867188 21.386719 C 22.792969 21.460938 22.753906 21.554688 22.753906 21.664062 L 22.753906 44.839844 C 22.753906 44.949219 22.792969 45.042969 22.867188 45.117188 C 22.945312 45.195312 23.039062 45.234375 23.148438 45.234375 L 53.144531 45.234375 C 53.253906 45.234375 53.347656 45.195312 53.421875 45.117188 C 53.5 45.042969 53.539062 44.949219 53.539062 44.839844 L 53.539062 21.664062 C 53.539062 21.554688 53.5 21.460938 53.421875 21.386719 C 53.347656 21.308594 53.253906 21.269531 53.144531 21.269531 Z M 53.144531 21.269531 " fill-opacity="1" fill-rule="nonzero"/><path fill="#ffffff" d="M 51.433594 49.78125 L 24.859375 49.78125 C 24.710938 49.78125 24.640625 49.707031 24.636719 49.5625 L 24.636719 48.339844 C 24.640625 48.191406 24.710938 48.121094 24.859375 48.121094 L 51.433594 48.121094 C 51.578125 48.121094 51.652344 48.191406 51.652344 48.339844 L 51.652344 49.5625 C 51.652344 49.707031 51.578125 49.78125 51.433594 49.78125 Z M 51.433594 49.78125 " fill-opacity="1" fill-rule="nonzero"/><path fill="#ffffff" d="M 42.222656 52.753906 L 24.859375 52.753906 C 24.710938 52.753906 24.640625 52.683594 24.636719 52.535156 L 24.636719 51.3125 C 24.640625 51.167969 24.710938 51.09375 24.859375 51.09375 L 42.222656 51.09375 C 42.371094 51.09375 42.441406 51.167969 42.445312 51.3125 L 42.445312 52.535156 C 42.441406 52.683594 42.371094 52.753906 42.222656 52.753906 Z M 42.222656 52.753906 " fill-opacity="1" fill-rule="nonzero"/><path fill="#ffb8b8" d="M 41.21875 33.171875 C 41.21875 33.675781 41.121094 34.160156 40.929688 34.628906 C 40.734375 35.09375 40.460938 35.503906 40.101562 35.859375 C 39.742188 36.21875 39.332031 36.492188 38.863281 36.683594 C 38.398438 36.878906 37.910156 36.976562 37.40625 36.976562 C 36.898438 36.976562 36.414062 36.878906 35.945312 36.683594 C 35.476562 36.492188 35.066406 36.21875 34.707031 35.859375 C 34.351562 35.503906 34.074219 35.09375 33.882812 34.628906 C 33.6875 34.160156 33.589844 33.675781 33.589844 33.171875 C 33.589844 32.667969 33.6875 32.183594 33.882812 31.714844 C 34.074219 31.25 34.351562 30.839844 34.707031 30.484375 C 35.066406 30.125 35.476562 29.851562 35.945312 29.65625 C 36.414062 29.464844 36.898438 29.367188 37.40625 29.367188 C 37.910156 29.367188 38.398438 29.464844 38.863281 29.65625 C 39.332031 29.851562 39.742188 30.125 40.101562 30.484375 C 40.460938 30.839844 40.734375 31.25 40.929688 31.714844 C 41.121094 32.183594 41.21875 32.667969 41.21875 33.171875 Z M 41.21875 33.171875 " fill-opacity="1" fill-rule="nonzero"/><path fill="#00bfa6" d="M 42.984375 45.234375 L 34.527344 45.234375 L 34.804688 39.035156 L 34.871094 38.964844 L 35.820312 37.964844 L 38.839844 37.964844 L 39.957031 39.046875 L 40.050781 39.132812 L 42.433594 41.410156 Z M 42.984375 45.234375 " fill-opacity="1" fill-rule="nonzero"/><path fill="#2f2e41" d="M 35.984375 45.234375 L 29.585938 45.234375 C 29.570312 43.835938 29.5625 42.996094 29.5625 42.996094 L 29.929688 42.773438 C 29.929688 42.769531 29.933594 42.769531 29.933594 42.769531 L 34.011719 40.304688 L 34.867188 38.917969 L 34.871094 38.964844 L 35.121094 41.886719 C 35.121094 41.886719 35.539062 43.226562 35.984375 45.234375 Z M 35.984375 45.234375 " fill-opacity="1" fill-rule="nonzero"/><path fill="#2f2e41" d="M 46.734375 45.234375 L 39.957031 45.234375 C 40.0625 41.152344 39.507812 38.917969 39.792969 38.917969 L 39.957031 39.046875 L 41.957031 40.621094 L 44.589844 41.582031 L 46.40625 42.246094 L 46.722656 42.363281 L 46.722656 42.511719 C 46.722656 42.871094 46.726562 43.851562 46.734375 45.234375 Z M 46.734375 45.234375 " fill-opacity="1" fill-rule="nonzero"/><path fill="#2f2e41" d="M 33.796875 34.363281 C 33.796875 34.363281 34.121094 33.792969 34.046875 31.898438 C 33.96875 30.003906 36.863281 31.074219 39.285156 30.894531 C 41.703125 30.714844 41.191406 34.058594 41.191406 34.058594 C 41.191406 34.058594 41.363281 33.859375 41.738281 32.246094 C 42.113281 30.628906 41.265625 29.023438 41.265625 29.023438 C 41.015625 27.324219 39.667969 27.867188 39.667969 27.867188 C 40.316406 28.121094 40.191406 28.660156 40.191406 28.660156 C 39.644531 27.699219 38.296875 28.242188 38.296875 28.242188 C 36.5 27.117188 34.679688 28.597656 34.679688 28.597656 C 32.511719 29.089844 33.78125 30.808594 33.78125 30.808594 C 31.601562 31.910156 33.796875 34.363281 33.796875 34.363281 Z M 33.796875 34.363281 " fill-opacity="1" fill-rule="nonzero"/><path fill="#2f2e41" d="M 30.441406 45.234375 L 27.8125 45.234375 C 27.832031 44.910156 27.832031 44.585938 27.8125 44.265625 C 27.65625 43.640625 29.863281 42.796875 29.929688 42.773438 C 29.929688 42.769531 29.933594 42.769531 29.933594 42.769531 L 30.355469 42.996094 Z M 30.441406 45.234375 " fill-opacity="1" fill-rule="nonzero"/><path fill="#2f2e41" d="M 47.210938 45.234375 L 44.449219 45.234375 L 44.105469 41.839844 L 44.492188 41.558594 C 44.492188 41.558594 44.527344 41.566406 44.589844 41.582031 C 44.898438 41.660156 45.855469 41.910156 46.40625 42.246094 C 46.527344 42.316406 46.632812 42.402344 46.722656 42.511719 C 46.777344 42.578125 46.804688 42.65625 46.796875 42.746094 C 46.785156 42.871094 46.945312 43.804688 47.210938 45.234375 Z M 47.210938 45.234375 " fill-opacity="1" fill-rule="nonzero"/><g clip-path="url(#b2adb55ae5)"><path fill="#f0f0f0" d="M 116.324219 44.804688 L 77.992188 44.804688 C 77.886719 44.804688 77.792969 44.769531 77.714844 44.691406 C 77.636719 44.613281 77.597656 44.519531 77.597656 44.414062 L 77.597656 7.15625 C 77.597656 7.046875 77.636719 6.953125 77.714844 6.875 C 77.792969 6.800781 77.886719 6.761719 77.992188 6.761719 L 116.324219 6.761719 C 116.429688 6.761719 116.523438 6.800781 116.601562 6.875 C 116.679688 6.953125 116.71875 7.046875 116.71875 7.15625 L 116.71875 44.414062 C 116.71875 44.519531 116.679688 44.613281 116.601562 44.691406 C 116.523438 44.769531 116.429688 44.804688 116.324219 44.804688 Z M 116.324219 44.804688 " fill-opacity="1" fill-rule="nonzero"/></g><path fill="#ffffff" d="M 112.15625 10.171875 L 82.160156 10.171875 C 82.050781 10.171875 81.957031 10.210938 81.882812 10.289062 C 81.804688 10.363281 81.765625 10.457031 81.765625 10.566406 L 81.765625 33.742188 C 81.765625 33.851562 81.804688 33.945312 81.882812 34.019531 C 81.957031 34.097656 82.050781 34.136719 82.160156 34.136719 L 112.15625 34.136719 C 112.265625 34.136719 112.359375 34.097656 112.433594 34.019531 C 112.511719 33.945312 112.550781 33.851562 112.550781 33.742188 L 112.550781 10.566406 C 112.550781 10.457031 112.511719 10.363281 112.433594 10.289062 C 112.359375 10.210938 112.265625 10.171875 112.15625 10.171875 Z M 112.15625 10.171875 " fill-opacity="1" fill-rule="nonzero"/><path fill="#ffffff" d="M 110.445312 38.683594 L 83.871094 38.683594 C 83.722656 38.683594 83.652344 38.609375 83.652344 38.464844 L 83.652344 37.242188 C 83.652344 37.09375 83.722656 37.023438 83.871094 37.023438 L 110.445312 37.023438 C 110.59375 37.023438 110.664062 37.09375 110.664062 37.242188 L 110.664062 38.464844 C 110.664062 38.609375 110.59375 38.683594 110.445312 38.683594 Z M 110.445312 38.683594 " fill-opacity="1" fill-rule="nonzero"/><path fill="#ffffff" d="M 101.238281 41.65625 L 83.871094 41.65625 C 83.722656 41.65625 83.652344 41.585938 83.652344 41.4375 L 83.652344 40.214844 C 83.652344 40.070312 83.722656 39.996094 83.871094 39.996094 L 101.238281 39.996094 C 101.382812 39.996094 101.457031 40.070312 101.457031 40.214844 L 101.457031 41.4375 C 101.457031 41.585938 101.382812 41.65625 101.238281 41.65625 Z M 101.238281 41.65625 " fill-opacity="1" fill-rule="nonzero"/><path fill="#00bfa6" d="M 104.542969 34.136719 C 104.710938 33.527344 104.84375 33.003906 104.910156 32.632812 C 104.929688 32.519531 104.933594 32.402344 104.917969 32.289062 C 104.664062 30.496094 100.101562 28.980469 99.515625 28.792969 L 99.375 27.234375 L 93.632812 26.617188 L 92.90625 28.613281 L 90.84375 29.382812 C 90.769531 29.410156 90.699219 29.445312 90.632812 29.492188 C 90.453125 29.609375 90.328125 29.769531 90.25 29.96875 C 90.175781 30.167969 90.160156 30.371094 90.210938 30.578125 L 91.089844 34.136719 Z M 104.542969 34.136719 " fill-opacity="1" fill-rule="nonzero"/><path fill="#00bfa6" d="M 92.636719 34.136719 L 88.179688 34.136719 C 88.339844 33.144531 88.480469 32.265625 88.574219 31.710938 C 88.914062 29.679688 90.398438 29.503906 90.632812 29.492188 C 90.648438 29.488281 90.660156 29.488281 90.664062 29.488281 L 91.601562 29.488281 Z M 92.636719 34.136719 " fill-opacity="1" fill-rule="nonzero"/><path fill="#00bfa6" d="M 104.542969 34.136719 L 105.621094 34.136719 C 105.527344 33.261719 105.222656 32.671875 104.917969 32.289062 C 104.707031 32.015625 104.449219 31.800781 104.144531 31.644531 L 104.0625 31.613281 L 103.113281 34.136719 Z M 104.542969 34.136719 " fill-opacity="1" fill-rule="nonzero"/><path fill="#a0616a" d="M 100.414062 21.503906 C 100.414062 21.777344 100.386719 22.042969 100.335938 22.308594 C 100.28125 22.574219 100.203125 22.832031 100.097656 23.082031 C 99.996094 23.332031 99.867188 23.570312 99.71875 23.796875 C 99.566406 24.023438 99.394531 24.230469 99.203125 24.421875 C 99.011719 24.613281 98.800781 24.785156 98.574219 24.933594 C 98.351562 25.085938 98.113281 25.210938 97.859375 25.316406 C 97.609375 25.417969 97.351562 25.496094 97.085938 25.550781 C 96.820312 25.601562 96.550781 25.628906 96.277344 25.628906 C 96.007812 25.628906 95.738281 25.601562 95.472656 25.550781 C 95.207031 25.496094 94.945312 25.417969 94.695312 25.316406 C 94.445312 25.210938 94.207031 25.085938 93.980469 24.933594 C 93.753906 24.785156 93.546875 24.613281 93.355469 24.421875 C 93.164062 24.230469 92.992188 24.023438 92.839844 23.796875 C 92.691406 23.570312 92.5625 23.332031 92.457031 23.082031 C 92.355469 22.832031 92.277344 22.574219 92.222656 22.308594 C 92.171875 22.042969 92.144531 21.777344 92.144531 21.503906 C 92.144531 21.234375 92.171875 20.964844 92.222656 20.699219 C 92.277344 20.4375 92.355469 20.179688 92.457031 19.925781 C 92.5625 19.675781 92.691406 19.441406 92.839844 19.214844 C 92.992188 18.988281 93.164062 18.78125 93.355469 18.589844 C 93.546875 18.398438 93.753906 18.226562 93.980469 18.078125 C 94.207031 17.925781 94.445312 17.800781 94.695312 17.695312 C 94.945312 17.59375 95.207031 17.515625 95.472656 17.460938 C 95.738281 17.410156 96.007812 17.382812 96.277344 17.382812 C 96.550781 17.382812 96.820312 17.410156 97.085938 17.460938 C 97.351562 17.515625 97.609375 17.59375 97.859375 17.695312 C 98.113281 17.800781 98.351562 17.925781 98.574219 18.078125 C 98.800781 18.226562 99.011719 18.398438 99.203125 18.589844 C 99.394531 18.78125 99.566406 18.988281 99.71875 19.214844 C 99.867188 19.441406 99.996094 19.675781 100.097656 19.925781 C 100.203125 20.179688 100.28125 20.4375 100.335938 20.699219 C 100.386719 20.964844 100.414062 21.234375 100.414062 21.503906 Z M 100.414062 21.503906 " fill-opacity="1" fill-rule="nonzero"/><path fill="#2f2e41" d="M 93.503906 19.496094 C 93.929688 20 94.65625 20.144531 95.324219 20.203125 C 96.679688 20.320312 98.65625 20.128906 99.980469 19.824219 C 100.074219 20.738281 99.816406 21.722656 100.359375 22.476562 C 100.613281 21.5625 100.757812 20.632812 100.796875 19.683594 C 100.8125 19.277344 100.804688 18.859375 100.640625 18.488281 C 100.476562 18.117188 100.117188 17.800781 99.703125 17.796875 C 100.015625 17.558594 100.363281 17.410156 100.753906 17.347656 L 99.441406 16.691406 L 99.777344 16.347656 L 97.398438 16.199219 L 98.089844 15.765625 C 97.046875 15.621094 96.003906 15.589844 94.960938 15.667969 C 94.476562 15.703125 93.96875 15.769531 93.574219 16.050781 C 93.183594 16.332031 92.957031 16.886719 93.199219 17.296875 C 92.890625 17.347656 92.613281 17.472656 92.367188 17.664062 C 92.121094 17.859375 91.9375 18.101562 91.816406 18.390625 C 91.640625 18.835938 91.65625 19.324219 91.710938 19.796875 C 91.800781 20.554688 91.976562 21.289062 92.234375 22.007812 " fill-opacity="1" fill-rule="nonzero"/><g clip-path="url(#dfeb7bd277)"><path fill="#e4e4e4" d="M 87.546875 68.265625 L 49.21875 68.265625 C 49.109375 68.265625 49.015625 68.226562 48.9375 68.148438 C 48.859375 68.074219 48.824219 67.980469 48.824219 67.871094 L 48.824219 30.613281 C 48.824219 30.503906 48.859375 30.414062 48.9375 30.335938 C 49.015625 30.257812 49.109375 30.21875 49.21875 30.21875 L 87.546875 30.21875 C 87.65625 30.21875 87.746094 30.257812 87.824219 30.335938 C 87.902344 30.414062 87.941406 30.503906 87.941406 30.613281 L 87.941406 67.871094 C 87.941406 67.980469 87.902344 68.074219 87.824219 68.148438 C 87.746094 68.226562 87.65625 68.265625 87.546875 68.265625 Z M 87.546875 68.265625 " fill-opacity="1" fill-rule="nonzero"/></g><path fill="#ffffff" d="M 83.378906 33.632812 L 53.382812 33.632812 C 53.273438 33.632812 53.179688 33.667969 53.105469 33.746094 C 53.027344 33.824219 52.988281 33.917969 52.988281 34.023438 L 52.988281 57.203125 C 52.988281 57.308594 53.027344 57.402344 53.105469 57.480469 C 53.179688 57.554688 53.273438 57.59375 53.382812 57.59375 L 83.378906 57.59375 C 83.488281 57.59375 83.582031 57.554688 83.660156 57.480469 C 83.734375 57.402344 83.773438 57.308594 83.773438 57.203125 L 83.773438 34.023438 C 83.773438 33.917969 83.734375 33.824219 83.660156 33.746094 C 83.582031 33.667969 83.488281 33.632812 83.378906 33.632812 Z M 83.378906 33.632812 " fill-opacity="1" fill-rule="nonzero"/><path fill="#ffffff" d="M 81.667969 62.144531 L 55.09375 62.144531 C 54.949219 62.144531 54.875 62.070312 54.875 61.925781 L 54.875 60.699219 C 54.875 60.554688 54.949219 60.480469 55.09375 60.480469 L 81.667969 60.480469 C 81.816406 60.480469 81.886719 60.554688 81.886719 60.699219 L 81.886719 61.925781 C 81.886719 62.070312 81.816406 62.144531 81.667969 62.144531 Z M 81.667969 62.144531 " fill-opacity="1" fill-rule="nonzero"/><path fill="#ffffff" d="M 72.460938 65.117188 L 55.09375 65.117188 C 54.949219 65.117188 54.875 65.042969 54.875 64.898438 L 54.875 63.671875 C 54.875 63.527344 54.949219 63.453125 55.09375 63.453125 L 72.460938 63.453125 C 72.605469 63.453125 72.679688 63.527344 72.679688 63.671875 L 72.679688 64.898438 C 72.679688 65.042969 72.605469 65.117188 72.460938 65.117188 Z M 72.460938 65.117188 " fill-opacity="1" fill-rule="nonzero"/><path fill="#00bfa6" d="M 71.332031 57.59375 L 65.296875 57.59375 L 65.671875 51.964844 L 67.851562 52.464844 L 69.96875 51.652344 L 70.023438 51.632812 L 70.027344 51.628906 C 70.027344 51.632812 70.027344 51.632812 70.03125 51.636719 C 70.0625 51.769531 70.726562 54.425781 71.332031 57.59375 Z M 71.332031 57.59375 " fill-opacity="1" fill-rule="nonzero"/><path fill="#2f2e41" d="M 74.972656 52.882812 L 74.40625 57.59375 L 69.320312 57.59375 L 69.96875 51.652344 L 69.972656 51.59375 L 70.023438 51.632812 L 70.03125 51.636719 L 71.285156 52.546875 Z M 74.972656 52.882812 " fill-opacity="1" fill-rule="nonzero"/><path fill="#2f2e41" d="M 66.1875 57.59375 L 61.632812 57.59375 L 61.566406 53.886719 L 64.917969 52.777344 L 65.671875 51.964844 C 65.671875 51.964844 65.910156 54.410156 66.1875 57.59375 Z M 66.1875 57.59375 " fill-opacity="1" fill-rule="nonzero"/><path fill="#2f2e41" d="M 77.164062 57.59375 L 73.386719 57.59375 L 73.628906 54.21875 L 74.972656 52.882812 C 74.972656 52.882812 76.03125 55.101562 77.164062 57.59375 Z M 77.164062 57.59375 " fill-opacity="1" fill-rule="nonzero"/><path fill="#2f2e41" d="M 62.707031 57.59375 L 60.714844 57.59375 C 60.722656 56.515625 60.730469 55.765625 60.730469 55.554688 C 60.71875 55.226562 60.789062 54.910156 60.9375 54.617188 C 61.085938 54.320312 61.292969 54.078125 61.566406 53.886719 L 62.574219 54.21875 Z M 62.707031 57.59375 " fill-opacity="1" fill-rule="nonzero"/><path fill="#2f2e41" d="M 62.394531 46.167969 C 62.398438 45.238281 62.632812 44.367188 63.097656 43.558594 C 63.5625 42.75 64.195312 42.109375 65 41.632812 C 66.675781 40.644531 68.703125 40.664062 70.554688 41.683594 C 71.875 42.410156 72.949219 44.238281 72.949219 45.757812 L 72.949219 50.191406 L 62.394531 50.191406 Z M 62.394531 46.167969 " fill-opacity="1" fill-rule="nonzero"/><path fill="#ffb8b8" d="M 70.808594 44.457031 C 71.050781 44.902344 71.199219 45.371094 71.253906 45.875 C 71.308594 46.375 71.265625 46.867188 71.121094 47.351562 C 70.980469 47.835938 70.75 48.273438 70.433594 48.664062 C 70.117188 49.058594 69.738281 49.375 69.292969 49.617188 C 68.847656 49.859375 68.375 50.007812 67.875 50.0625 C 67.371094 50.117188 66.878906 50.070312 66.390625 49.929688 C 65.90625 49.789062 65.46875 49.558594 65.074219 49.242188 C 64.679688 48.925781 64.363281 48.546875 64.121094 48.105469 C 63.875 47.664062 63.726562 47.191406 63.675781 46.691406 C 63.621094 46.1875 63.664062 45.695312 63.804688 45.210938 C 63.949219 44.730469 64.179688 44.289062 64.496094 43.898438 C 64.8125 43.503906 65.191406 43.1875 65.636719 42.945312 C 66.078125 42.703125 66.550781 42.554688 67.054688 42.503906 C 67.558594 42.449219 68.050781 42.492188 68.535156 42.632812 C 69.023438 42.777344 69.460938 43.003906 69.855469 43.320312 C 70.25 43.636719 70.566406 44.015625 70.808594 44.457031 Z M 70.808594 44.457031 " fill-opacity="1" fill-rule="nonzero"/><path fill="#2f2e41" d="M 63.488281 46.316406 C 63.460938 46.285156 63.390625 46.207031 63.863281 42.597656 L 63.878906 42.539062 L 63.917969 42.539062 C 66.304688 41.371094 68.722656 41.339844 71.109375 42.453125 C 71.269531 42.527344 71.355469 42.652344 71.375 42.832031 C 71.652344 46.21875 71.585938 46.292969 71.554688 46.324219 C 71.464844 46.425781 71.347656 46.476562 71.210938 46.476562 L 70.15625 46.476562 L 70.132812 46.4375 C 69.949219 46.101562 69.75 45.777344 69.535156 45.460938 C 69.4375 45.773438 69.355469 46.09375 69.292969 46.417969 L 69.28125 46.476562 L 63.839844 46.476562 C 63.699219 46.476562 63.582031 46.425781 63.488281 46.316406 Z M 63.488281 46.316406 " fill-opacity="1" fill-rule="nonzero"/></svg>