<svg xmlns="http://www.w3.org/2000/svg" xmlns:xlink="http://www.w3.org/1999/xlink" width="180" zoomAndPan="magnify" viewBox="0 0 135 74.999997" height="100" preserveAspectRatio="xMidYMid meet" version="1.0"><defs><clipPath id="4f5f7bda2f"><path d="M 15.601562 3.058594 L 119.101562 3.058594 L 119.101562 72.058594 L 15.601562 72.058594 Z M 15.601562 3.058594 " clip-rule="nonzero"/></clipPath><clipPath id="80577905ba"><path d="M 37 12 L 98 12 L 98 72.058594 L 37 72.058594 Z M 37 12 " clip-rule="nonzero"/></clipPath><clipPath id="1406b4a9f7"><path d="M 19 3.058594 L 116 3.058594 L 116 72.058594 L 19 72.058594 Z M 19 3.058594 " clip-rule="nonzero"/></clipPath></defs><rect x="-13.5" width="162" fill="#ffffff" y="-7.5" height="89.999996" fill-opacity="1"/><rect x="-13.5" width="162" fill="#ffffff" y="-7.5" height="89.999996" fill-opacity="1"/><rect x="-13.5" width="162" fill="#ffcd39" y="-7.5" height="89.999996" fill-opacity="1"/><g clip-path="url(#4f5f7bda2f)"><path fill="#2c6b8e" d="M 119.09375 38.957031 L 119.09375 72.050781 L 15.601562 72.050781 L 15.601562 38.957031 L 37.679688 38.957031 L 37.679688 27.582031 L 32.53125 27.582031 L 67.347656 3.066406 L 102.164062 27.582031 L 97.015625 27.582031 L 97.015625 38.957031 Z M 119.09375 38.957031 " fill-opacity="1" fill-rule="nonzero"/></g><g clip-path="url(#80577905ba)"><path fill="#c23527" d="M 37.679688 38.957031 L 97.015625 38.957031 L 97.015625 40.75 L 37.679688 40.75 Z M 37.679688 72.050781 L 97.015625 72.050781 L 97.015625 43.011719 L 37.679688 43.011719 Z M 37.679688 27.480469 L 37.679688 33.226562 L 97.015625 33.226562 L 97.015625 27.480469 Z M 61.839844 17.597656 C 61.839844 14.542969 64.304688 12.066406 67.347656 12.066406 C 70.386719 12.066406 72.851562 14.542969 72.851562 17.597656 C 72.851562 20.652344 70.386719 23.128906 67.347656 23.128906 C 64.308594 23.128906 61.839844 20.652344 61.839844 17.597656 Z M 63.808594 17.597656 C 63.808594 19.558594 65.394531 21.152344 67.347656 21.152344 C 69.304688 21.152344 70.890625 19.558594 70.890625 17.597656 C 70.890625 15.632812 69.304688 14.039062 67.347656 14.039062 C 65.394531 14.039062 63.808594 15.632812 63.808594 17.597656 Z M 63.808594 17.597656 " fill-opacity="1" fill-rule="nonzero"/></g><g clip-path="url(#1406b4a9f7)"><path fill="#f0e5af" d="M 19.5 48.554688 L 25.125 48.554688 L 25.125 59.847656 L 19.5 59.847656 Z M 28.863281 59.847656 L 34.488281 59.847656 L 34.488281 48.554688 L 28.863281 48.554688 Z M 100.210938 59.847656 L 105.832031 59.847656 L 105.832031 48.554688 L 100.210938 48.554688 Z M 109.574219 48.554688 L 109.574219 59.847656 L 115.199219 59.847656 L 115.199219 48.554688 Z M 67.347656 52.003906 C 64.308594 52.003906 61.84375 54.480469 61.84375 57.535156 L 61.84375 72.050781 L 72.855469 72.050781 L 72.855469 57.535156 C 72.855469 54.480469 70.390625 52.003906 67.347656 52.003906 Z M 67.347656 14.039062 C 65.394531 14.039062 63.808594 15.632812 63.808594 17.597656 C 63.808594 19.558594 65.394531 21.152344 67.347656 21.152344 C 69.304688 21.152344 70.890625 19.558594 70.890625 17.597656 C 70.890625 15.632812 69.304688 14.039062 67.347656 14.039062 Z M 93.28125 30.964844 L 93.28125 68.671875 L 93.746094 68.671875 C 94.671875 68.671875 95.429688 69.425781 95.429688 70.363281 C 95.429688 71.296875 94.675781 72.054688 93.746094 72.054688 L 87.855469 72.054688 C 86.925781 72.054688 86.171875 71.296875 86.171875 70.363281 C 86.171875 69.425781 86.921875 68.671875 87.855469 68.671875 L 88.011719 68.671875 L 88.011719 30.964844 L 87.855469 30.964844 C 86.925781 30.964844 86.171875 30.207031 86.171875 29.273438 C 86.171875 28.339844 86.921875 27.578125 87.855469 27.578125 L 82.019531 27.578125 C 82.949219 27.578125 83.703125 28.335938 83.703125 29.273438 C 83.703125 30.203125 82.949219 30.964844 82.019531 30.964844 L 81.554688 30.964844 L 81.554688 68.671875 L 82.019531 68.671875 C 82.949219 68.671875 83.703125 69.425781 83.703125 70.363281 C 83.703125 71.296875 82.949219 72.054688 82.019531 72.054688 L 76.128906 72.054688 C 75.199219 72.054688 74.445312 71.296875 74.445312 70.363281 C 74.445312 69.425781 75.199219 68.671875 76.128906 68.671875 L 76.285156 68.671875 L 76.285156 30.964844 L 76.128906 30.964844 C 75.199219 30.964844 74.445312 30.207031 74.445312 29.273438 C 74.445312 28.339844 75.199219 27.578125 76.128906 27.578125 L 58.570312 27.578125 C 59.496094 27.578125 60.253906 28.335938 60.253906 29.273438 C 60.253906 30.203125 59.5 30.964844 58.570312 30.964844 L 58.105469 30.964844 L 58.105469 68.671875 L 58.570312 68.671875 C 59.496094 68.671875 60.253906 69.425781 60.253906 70.363281 C 60.253906 71.296875 59.5 72.054688 58.570312 72.054688 L 52.679688 72.054688 C 51.75 72.054688 50.996094 71.296875 50.996094 70.363281 C 50.996094 69.425781 51.746094 68.671875 52.679688 68.671875 L 52.835938 68.671875 L 52.835938 30.964844 L 52.679688 30.964844 C 51.75 30.964844 50.996094 30.207031 50.996094 29.273438 C 50.996094 28.339844 51.746094 27.578125 52.679688 27.578125 L 46.84375 27.578125 C 47.773438 27.578125 48.527344 28.335938 48.527344 29.273438 C 48.527344 30.203125 47.773438 30.964844 46.84375 30.964844 L 46.378906 30.964844 L 46.378906 68.671875 L 46.84375 68.671875 C 47.773438 68.671875 48.527344 69.425781 48.527344 70.363281 C 48.527344 71.296875 47.773438 72.054688 46.84375 72.054688 L 40.953125 72.054688 C 40.023438 72.054688 39.269531 71.296875 39.269531 70.363281 C 39.269531 69.425781 40.023438 68.671875 40.953125 68.671875 L 41.109375 68.671875 L 41.109375 30.964844 L 40.953125 30.964844 C 40.023438 30.964844 39.269531 30.207031 39.269531 29.273438 C 39.269531 28.339844 40.023438 27.578125 40.953125 27.578125 L 32.53125 27.578125 L 67.347656 3.066406 L 102.164062 27.582031 L 93.746094 27.582031 C 94.671875 27.582031 95.429688 28.339844 95.429688 29.273438 C 95.429688 30.207031 94.675781 30.964844 93.746094 30.964844 Z M 72.855469 17.597656 C 72.855469 14.542969 70.390625 12.066406 67.347656 12.066406 C 64.308594 12.066406 61.84375 14.542969 61.84375 17.597656 C 61.84375 20.652344 64.308594 23.128906 67.347656 23.128906 C 70.390625 23.128906 72.855469 20.652344 72.855469 17.597656 Z M 72.855469 17.597656 " fill-opacity="1" fill-rule="nonzero"/></g><path fill="#eac31c" d="M 67.347656 7.570312 L 42.125 25.332031 L 92.574219 25.332031 Z M 67.347656 23.128906 C 64.308594 23.128906 61.84375 20.652344 61.84375 17.597656 C 61.84375 14.542969 64.308594 12.066406 67.347656 12.066406 C 70.390625 12.066406 72.855469 14.542969 72.855469 17.597656 C 72.855469 20.652344 70.390625 23.128906 67.347656 23.128906 Z M 67.347656 23.128906 " fill-opacity="1" fill-rule="nonzero"/></svg>